<svg width="128" height="128" viewBox="0 0 128 128" fill="none" xmlns="http://www.w3.org/2000/svg">
<path d="M59.261 110.995C59.261 108.265 58.1943 105.786 56.4829 104.001C54.7714 102.215 52.3962 101.102 49.7792 101.102C47.1623 101.102 44.7871 102.215 43.0756 104.001C41.3642 105.786 40.2975 108.265 40.2975 110.995C40.2975 113.726 41.3642 116.205 43.0756 117.99C44.7871 119.776 47.1623 120.889 49.7792 120.889C52.3962 120.889 54.7714 119.776 56.4829 117.99C58.1943 116.205 59.261 113.726 59.261 110.995ZM111.411 110.995C111.411 108.265 110.344 105.786 108.633 104.001C106.921 102.215 104.546 101.102 101.929 101.102C99.312 101.102 96.9368 102.215 95.2254 104.001C93.5139 105.786 92.4472 108.265 92.4472 110.995C92.4472 113.726 93.5139 116.205 95.2254 117.99C96.9368 119.776 99.312 120.889 101.929 120.889C104.546 120.889 106.921 119.776 108.633 117.99C110.344 116.205 111.411 113.726 111.411 110.995ZM41.3452 41.7394H110.42L103.92 77.3123C103.702 78.4402 103.133 79.4147 102.346 80.1221C101.493 80.8938 100.388 81.339 99.0845 81.3143H52.9367C51.8368 81.3291 50.7985 80.9631 49.9689 80.3101C49.0681 79.6027 48.4091 78.5737 48.1721 77.3271L41.3452 41.7394ZM11.8522 17.0051H26.9282L30.9484 37.9748C31.4605 40.1366 33.3284 41.7394 35.5566 41.7394H41.3452L39.4489 31.8457H35.5566C32.9396 31.8457 30.8157 34.0618 30.8157 36.7925C30.8157 37.0547 30.8347 37.3119 30.8726 37.5593C30.8916 37.6978 30.92 37.8413 30.9532 37.9748L38.8752 79.2663C39.5816 82.9814 41.5775 86.1078 44.2798 88.2251C46.7498 90.1642 49.8267 91.2575 53.0694 91.208H99.0845C102.631 91.2822 105.982 89.9169 108.543 87.6117C110.885 85.5043 112.563 82.6005 113.212 79.2861L120.807 37.7225C121.296 35.0364 119.613 32.4492 117.038 31.9347C116.73 31.8704 116.422 31.8407 116.152 31.8457H39.4441L35.4618 11.0886C35.0161 8.80316 33.1055 7.11133 30.8157 7.11133H11.8522C9.23518 7.11133 7.11127 9.32752 7.11127 12.0582C7.11127 14.7889 9.23518 17.0051 11.8522 17.0051Z" fill="white"/>
<path fill-rule="evenodd" clip-rule="evenodd" d="M41.3452 41.7394L48.1721 77.3271C48.4091 78.5737 49.0681 79.6027 49.9689 80.3101C50.7985 80.963 51.8368 81.3291 52.9367 81.3143H99.0845C100.388 81.339 101.493 80.8938 102.346 80.1221C103.133 79.4147 103.702 78.4401 103.92 77.3123L110.42 41.7394H41.3452ZM49.9503 48.8504L54.8137 74.2032H97.2592L101.892 48.8504H49.9503ZM39.4441 31.8456H116.152C116.422 31.8407 116.73 31.8704 117.038 31.9347C119.613 32.4491 121.296 35.0364 120.807 37.7225L113.212 79.2861C112.563 82.6005 110.885 85.5043 108.543 87.6116C105.982 89.9169 102.631 91.2822 99.0845 91.208H53.0694C49.8267 91.2575 46.7498 90.1642 44.2798 88.225C41.5775 86.1078 39.5816 82.9814 38.8752 79.2663L30.9699 38.0621C30.9626 38.0335 30.9555 38.0047 30.9487 37.9759L30.9267 37.8615C30.9116 37.7924 30.898 37.722 30.8866 37.652L26.9282 17.005H11.8522C9.23518 17.005 7.11126 14.7888 7.11126 12.0582C7.11126 9.32749 9.23518 7.1113 11.8522 7.1113H30.8157C33.1055 7.1113 35.0161 8.80312 35.4618 11.0886L39.4441 31.8456ZM45.3208 24.7346H116.105C116.917 24.7263 117.717 24.8142 118.461 24.9673C125.077 26.3061 128.937 32.7625 127.804 38.9943L127.803 39.0007L120.2 80.6089L120.191 80.6535C119.248 85.4669 116.797 89.7493 113.301 92.896C112.084 93.9923 110.735 94.9544 109.284 95.752C110.97 96.6076 112.484 97.7418 113.767 99.0804C116.722 102.164 118.522 106.396 118.522 110.995C118.522 115.595 116.722 119.827 113.767 122.91C110.807 125.999 106.614 128 101.929 128C97.2438 128 93.0514 125.999 90.0911 122.91C87.1357 119.827 85.336 115.595 85.336 110.995C85.336 106.396 87.1357 102.164 90.0911 99.0804C90.342 98.8186 90.6018 98.5647 90.8699 98.3191H60.8383C61.1065 98.5647 61.3662 98.8186 61.6171 99.0804C64.5726 102.164 66.3723 106.396 66.3723 110.995C66.3723 115.595 64.5726 119.827 61.6171 122.91C58.6568 125.999 54.4644 128 49.7792 128C45.0941 128 40.9016 125.999 37.9414 122.91C34.9859 119.827 33.1862 115.595 33.1862 110.995C33.1862 106.396 34.9859 102.164 37.9414 99.0804C39.277 97.6867 40.8635 96.5145 42.633 95.6477C41.6741 95.1111 40.7583 94.5007 39.8939 93.8225C35.8575 90.66 32.9237 86.0278 31.8903 80.6006L31.8891 80.5945L24.0183 39.5702L23.9933 39.4644L23.9558 39.2691C23.9322 39.1558 23.9099 39.0396 23.8891 38.9208L21.0507 24.1161H11.8522C5.02554 24.1161 0 18.4279 0 12.0582C0 5.68843 5.02554 0.000244141 11.8522 0.000244141H30.8157C36.7968 0.000244141 41.4016 4.39395 42.4416 9.72765L42.4457 9.74875L45.3208 24.7346ZM56.4829 104.001C58.1943 105.786 59.261 108.265 59.261 110.995C59.261 113.726 58.1943 116.205 56.4829 117.99C54.7714 119.776 52.3962 120.889 49.7792 120.889C47.1623 120.889 44.7871 119.776 43.0756 117.99C41.3642 116.205 40.2975 113.726 40.2975 110.995C40.2975 108.265 41.3642 105.786 43.0756 104.001C44.7871 102.215 47.1623 101.102 49.7792 101.102C52.3962 101.102 54.7714 102.215 56.4829 104.001ZM108.633 104.001C110.344 105.786 111.411 108.265 111.411 110.995C111.411 113.726 110.344 116.205 108.633 117.99C106.921 119.776 104.546 120.889 101.929 120.889C99.312 120.889 96.9368 119.776 95.2254 117.99C93.5139 116.205 92.4472 113.726 92.4472 110.995C92.4472 108.265 93.5139 105.786 95.2254 104.001C96.9368 102.215 99.312 101.102 101.929 101.102C104.546 101.102 106.921 102.215 108.633 104.001Z" fill="#111827"/>
</svg>
